# xmcd
# Track frame offsets:
# 183
# 11125
# 23485
# 36548
# 46290
# 57053
# 70890
# 82183
# 92248
# 106463
# 118238
#
# Disc length: 1684 seconds
# Revision: 2
# Processed by: cddbd v1.5.2PL0 Copyright (c) Steve Scherf et al.
# Submitted via: VisiTrax 2.11.2.271 - For more info visit www.synapsa.com
#
DISCID=9506920b
DTITLE=Various Artist - The Country Collection Vol. 1
DYEAR=1989
DGENRE=Country
TTITLE0=Billie Jo Spears - I'm so lonesome I could cry
TTITLE1=Willie Nelson - I can't find the time
TTITLE2=Johnny Paycheck - Talk about me
TTITLE3=Ned Miller - From a jack to a king
TTITLE4=Dolly Parton - Honky tonk angels
TTITLE5=Kenny Rogers - Shine on Ruby Mountain
TTITLE6=Faron Young - Country girls
TTITLE7=Patsy Cline - Turn the cards slowly
TTITLE8=George Jones - A good year for the roses
TTITLE9=Roger Miller - Littel green apples
TTITLE10=Roger Miller - Dear heart
EXTD=
EXTT0=
EXTT1=
EXTT2=
EXTT3=
EXTT4=
EXTT5=
EXTT6=
EXTT7=
EXTT8=
EXTT9=
EXTT10=
PLAYORDER=
